<svg width="607" height="607" viewBox="0 0 607 607" fill="none" xmlns="http://www.w3.org/2000/svg">
<path d="M535.872 45.7113C599.675 109.514 541.05 271.585 404.93 407.705C268.809 543.826 106.739 602.451 42.9354 538.648C-20.8677 474.845 37.7573 312.775 173.878 176.654C309.999 40.5332 472.069 -18.0918 535.872 45.7113Z" fill="#000023"/>
<path fill-rule="evenodd" clip-rule="evenodd" d="M390.863 221.123C398.062 221.068 403.898 222.58 408.373 225.659C409.705 226.546 410.928 227.52 412.044 228.581L412.516 229.041L429.773 246.231C432.181 248.64 434.059 251.477 435.407 254.741C437.547 259.686 438.617 265.078 438.617 270.915C438.617 276.363 437.547 281.284 435.407 285.678C433.364 289.974 430.105 293.355 425.63 295.821C421.155 298.287 415.319 299.549 408.119 299.603L374.556 299.859L357.299 282.668V221.379L390.863 221.123ZM408.119 238.313L374.556 238.569V282.536L390.863 282.412C398.062 282.357 403.898 281.096 408.373 278.63C412.848 276.164 416.107 272.782 418.151 268.486C420.29 264.092 421.361 259.171 421.361 253.724C421.361 248.728 420.574 244.061 419.007 239.719C415.812 238.751 412.183 238.282 408.119 238.313Z" fill="#0339F2"/>
<path fill-rule="evenodd" clip-rule="evenodd" d="M390.863 181.576C407.887 181.446 422.528 184.448 434.786 190.581C442.076 194.199 448.366 198.637 453.657 203.895L470.914 221.087C474.591 224.741 477.786 228.792 480.498 233.238C487.114 243.986 490.421 256.316 490.421 270.227C490.421 283.945 487.114 295.936 480.498 306.201C473.884 316.466 464.398 324.516 452.043 330.351C439.785 336.086 425.144 339.019 408.119 339.149L374.556 339.405V411.493L323.336 411.884L306.079 394.692V182.223L390.863 181.576ZM408.119 198.768L323.336 199.414V394.56L357.299 394.302V322.214L390.863 321.958C407.887 321.828 422.528 318.895 434.786 313.159C447.141 307.325 456.627 299.275 463.241 289.01C469.857 278.745 473.164 266.754 473.164 253.037C473.164 239.125 469.857 226.795 463.241 216.047C462.668 215.106 462.071 214.184 461.454 213.279C458.528 211.271 455.391 209.434 452.043 207.772C439.785 201.64 425.144 198.638 408.119 198.768Z" fill="#0339F2"/>
<path d="M390.862 181.576C407.887 181.446 422.528 184.448 434.786 190.581C447.141 196.713 456.627 205.201 463.242 216.047C469.857 226.795 473.165 239.125 473.165 253.037C473.165 266.754 469.857 278.745 463.242 289.01C456.627 299.275 447.141 307.325 434.786 313.159C422.528 318.895 407.887 321.828 390.862 321.958L357.299 322.214V394.302L306.079 394.692V182.223L390.862 181.576ZM357.299 282.668L390.862 282.412C398.062 282.357 403.898 281.096 408.373 278.63C412.848 276.164 416.108 272.783 418.151 268.487C420.291 264.092 421.36 259.171 421.36 253.723C421.36 247.886 420.291 242.495 418.151 237.55C416.108 232.604 412.848 228.64 408.373 225.659C403.898 222.58 398.062 221.068 390.862 221.122L357.299 221.378V282.668Z" fill="url(#paint0_linear_2073_2372)"/>
<path d="M577.029 54.4773C647.714 125.162 588.038 299.441 443.74 443.74C299.441 588.038 125.162 647.714 54.4774 577.029L29.7288 552.281C100.414 622.965 274.692 563.29 418.991 418.991C563.29 274.692 622.965 100.413 552.28 29.7286L577.029 54.4773Z" fill="url(#paint1_linear_2073_2372)"/>
<path d="M187.767 187.767C315.664 59.8704 465.566 2.41066 522.582 59.4272C526.77 63.615 530.339 68.3047 533.309 73.4492C468.412 35.9815 331.019 94.013 212.516 212.516C94.0129 331.019 35.9806 468.413 73.4486 533.31C68.3042 530.339 63.615 526.77 59.4273 522.582C2.41072 465.566 59.8704 315.664 187.767 187.767Z" fill="url(#paint2_linear_2073_2372)"/>
<path fill-rule="evenodd" clip-rule="evenodd" d="M163.018 163.018C307.317 18.7197 481.596 -40.9561 552.281 29.7288C622.966 100.414 563.29 274.692 418.991 418.991C274.692 563.29 100.414 622.966 29.7288 552.281C-40.9561 481.596 18.7197 307.317 163.018 163.018ZM187.767 187.767C59.8704 315.664 2.41072 465.566 59.4273 522.582C116.444 579.599 266.346 522.139 394.242 394.242C522.139 266.346 579.599 116.444 522.582 59.4273C465.566 2.41072 315.664 59.8704 187.767 187.767Z" fill="url(#paint3_linear_2073_2372)"/>
<path fill-rule="evenodd" clip-rule="evenodd" d="M169.199 395.736V222.813L186.456 240.004V412.927L169.199 395.736Z" fill="#0338F2"/>
<path fill-rule="evenodd" clip-rule="evenodd" d="M169.199 222.813L106.742 223.289L123.999 240.48L186.456 240.004L169.199 222.813Z" fill="#0338F2"/>
<path fill-rule="evenodd" clip-rule="evenodd" d="M106.742 223.289V183.743L284.335 182.389L301.592 199.58L123.999 200.934V240.48L106.742 223.289Z" fill="#0338F2"/>
<path fill-rule="evenodd" clip-rule="evenodd" d="M284.335 182.389V221.935L220.419 222.422V395.345L169.199 395.736L186.456 412.927L237.676 412.537V239.613L301.592 239.126V199.58L284.335 182.389Z" fill="#0338F2"/>
<path d="M284.335 221.935L220.419 222.422V395.345L169.199 395.736V222.813L106.742 223.289V183.743L284.335 182.389V221.935Z" fill="url(#paint4_linear_2073_2372)"/>
<path fill-rule="evenodd" clip-rule="evenodd" d="M520.636 159.789V193.679L511.46 193.705L506.798 189.048L505.469 193.721L500.226 193.736L494.992 188.509L494.235 185.827V193.751L485.059 193.777L479.825 188.55V167.139L473.388 167.158V193.559L462.903 193.588L457.669 188.362V167.201L454.726 167.209L449.492 161.983V154.743L475.644 154.671L479.825 158.847V154.66L491.06 154.628L496.294 159.855L499.57 171.016L504.979 154.59L515.403 154.562L520.636 159.789ZM485.059 159.886V188.536L489 188.526V167.304L494.235 172.531L498.745 188.498L500.236 188.495L502.212 181.547L497.614 176.956L492.597 159.865L485.059 159.886ZM510.212 159.817L507.335 168.552L511.46 172.671V188.463L515.402 188.453V159.802L510.212 159.817ZM454.726 159.969V161.968L457.669 161.96L462.903 167.187V188.347L468.155 188.332V161.932L475.644 161.912V159.912L454.726 159.969Z" fill="#0339F2"/>
<path d="M506.227 188.478V167.444L500.235 188.495L494.992 188.509L489.001 167.304V188.525L479.826 188.551V154.66L491.06 154.629L497.614 176.955L504.979 154.591L515.402 154.562V188.453L506.227 188.478ZM475.644 154.671V161.911L468.154 161.932V188.333L457.669 188.362V161.96L449.492 161.983V154.743L475.644 154.671Z" fill="#04DDF8"/>
<defs>
<linearGradient id="paint0_linear_2073_2372" x1="389.622" y1="181.572" x2="389.622" y2="394.692" gradientUnits="userSpaceOnUse">
<stop stop-color="#04DFFA"/>
<stop offset="1" stop-color="#07ADCF"/>
</linearGradient>
<linearGradient id="paint1_linear_2073_2372" x1="106.096" y1="628.648" x2="628.648" y2="106.096" gradientUnits="userSpaceOnUse">
<stop stop-color="#010CAB"/>
<stop offset="1" stop-color="#086DF2"/>
</linearGradient>
<linearGradient id="paint2_linear_2073_2372" x1="13.9957" y1="477.15" x2="477.151" y2="13.9955" gradientUnits="userSpaceOnUse">
<stop stop-color="#0124E5"/>
<stop offset="0.5" stop-color="#0340F3"/>
<stop offset="1" stop-color="#031BD6"/>
</linearGradient>
<linearGradient id="paint3_linear_2073_2372" x1="29.7288" y1="552.281" x2="552.281" y2="29.7288" gradientUnits="userSpaceOnUse">
<stop stop-color="#0335F2"/>
<stop offset="1" stop-color="#056FF3"/>
</linearGradient>
<linearGradient id="paint4_linear_2073_2372" x1="195.539" y1="182.389" x2="195.539" y2="395.736" gradientUnits="userSpaceOnUse">
<stop stop-color="#04DFFA"/>
<stop offset="1" stop-color="#07ADCF"/>
</linearGradient>
</defs>
</svg>
